# xmcd CD database file
#
# Track frame offsets:
#	150
#	32755
#	69102
#	89648
#	118500
#	134486
#	157293
#	186473
#	221263
#	245486
#	271604
#
# Disc length: 3956 seconds
#
# Revision: 0
# Processed by: cddbd v1.5.2PL0 Copyright (c) Steve Scherf et al.
# Submitted via: CDex 1.51
#
DISCID=9e0f720b
DTITLE=Ulf Andersson - Flying Carpet
DYEAR=1998
DGENRE=Jazz
TTITLE0=Flying Carpet
TTITLE1=Slow Motion
TTITLE2=Jamboree
TTITLE3=Kwaku Baah
TTITLE4=Early Meeting
TTITLE5=Straight Plush
TTITLE6=Thiny Giant
TTITLE7=Milesology
TTITLE8=Hermosa Beach
TTITLE9=Hippodrome
TTITLE10=Mr.O.Grinders
EXTD=YEAR: 1998
EXTT0=
EXTT1=
EXTT2=
EXTT3=
EXTT4=
EXTT5=
EXTT6=
EXTT7=
EXTT8=
EXTT9=
EXTT10=
PLAYORDER=
